<svg xmlns="http://www.w3.org/2000/svg" viewBox="0 0 64 64" role="img" aria-labelledby="title">
  <title id="title">Alivia Properties</title>
  <defs>
    <linearGradient id="bg" x1="10" y1="6" x2="54" y2="58" gradientUnits="userSpaceOnUse">
      <stop offset="0" stop-color="#0b6b57" />
      <stop offset="0.58" stop-color="#073d33" />
      <stop offset="1" stop-color="#061f1b" />
    </linearGradient>
    <linearGradient id="gold" x1="18" y1="15" x2="48" y2="49" gradientUnits="userSpaceOnUse">
      <stop offset="0" stop-color="#f4d37a" />
      <stop offset="1" stop-color="#d99a28" />
    </linearGradient>
    <filter id="shadow" x="-20%" y="-20%" width="140%" height="140%">
      <feDropShadow dx="0" dy="4" stdDeviation="4" flood-color="#02110e" flood-opacity="0.35" />
    </filter>
  </defs>

  <rect width="64" height="64" rx="16" fill="url(#bg)" />
  <path d="M10 14C19 8 31 6 44 10c5 1.5 8 3.7 10 6v36H10V14Z" fill="#ffffff" opacity="0.08" />
  <path d="M8 42c10-8 21-10 34-7 6 1.4 11 4.1 14 8v13H8V42Z" fill="#ffffff" opacity="0.06" />

  <g filter="url(#shadow)">
    <path
      d="M15.5 31.5 32 16l16.5 15.5"
      fill="none"
      stroke="url(#gold)"
      stroke-width="5.5"
      stroke-linecap="round"
      stroke-linejoin="round"
    />
    <path
      d="M20.5 46.5V32.2L32 21.6l11.5 10.6v14.3"
      fill="none"
      stroke="#fff8e8"
      stroke-width="3.25"
      stroke-linecap="round"
      stroke-linejoin="round"
      opacity="0.96"
    />
    <text
      x="32"
      y="47.5"
      text-anchor="middle"
      font-family="Georgia, 'Times New Roman', serif"
      font-size="18"
      font-weight="700"
      letter-spacing="-1.9"
      fill="#fff8e8"
    >
      AP
    </text>
  </g>
</svg>
